<?xml version="1.0" encoding="utf-8"?>
<!-- Generator: Adobe Illustrator 27.5.0, SVG Export Plug-In . SVG Version: 6.00 Build 0)  -->
<svg version="1.1" xmlns="http://www.w3.org/2000/svg" xmlns:xlink="http://www.w3.org/1999/xlink" x="0px" y="0px"
	 viewBox="0 0 750 500" style="enable-background:new 0 0 750 500;" xml:space="preserve">
<g id="BACKROUND">
	<rect style="fill:#93C6B6;" width="750" height="500"/>
</g>
<g id="OBJECTS">
	<g>
		<g>
			<path style="fill:#BAE5E5;" d="M44.98,467.039h658.43c0,0-21.39-57.221-40.919-56.355c-19.53,0.866-48.849,0.822-34.189-64.255
				c14.66-65.077,50.257-176.207-34.501-179.231c-84.758-3.024-157.766-32.211-181.711-76.421
				c-23.945-44.21-126.147-86.561-181.53-14.952s-23.326,203.385-63.534,214.221C126.819,300.881,44.98,336.53,44.98,467.039z"/>
			<g>
				<path style="fill:#A8DDDB;" d="M45.282,76.068c4.394,212.643,291.407,359.47,291.407,359.47
					C275.508,142.195,45.282,76.068,45.282,76.068z"/>
				<path style="fill:#A8DDDB;" d="M539.351,378.813C713.327,223.399,697.424,34.633,697.424,34.633
					C530.114,102.322,479.51,343.328,468.02,414.767c-26.416,15.88-42.755,28.633-42.755,28.633
					c194.81,45.518,299.638-75.251,299.638-75.251C664.628,341.628,595.818,355.891,539.351,378.813z"/>
				<path style="fill:#A8DDDB;" d="M699.705,409.639c-2.046,0-3.705,1.659-3.705,3.705c0,2.046,1.659,3.705,3.705,3.705
					c2.046,0,3.705-1.659,3.705-3.705C703.41,411.298,701.752,409.639,699.705,409.639z"/>
				<path style="fill:#A8DDDB;" d="M713.091,158.356c2.481,0,4.492-2.011,4.492-4.492c0-2.481-2.011-4.492-4.492-4.492
					c-2.481,0-4.492,2.011-4.492,4.492C708.598,156.345,710.61,158.356,713.091,158.356z"/>
				
					<ellipse transform="matrix(0.9998 -0.0203 0.0203 0.9998 -0.6819 12.6656)" style="fill:#A8DDDB;" cx="623.042" cy="39.893" rx="5.26" ry="5.26"/>
				<circle style="fill:#A8DDDB;" cx="388.485" cy="25.333" r="4.333"/>
				<path style="fill:#A8DDDB;" d="M150.138,53.401c1.887,0,3.418-1.53,3.418-3.418c0-1.887-1.53-3.418-3.418-3.418
					c-1.887,0-3.418,1.53-3.418,3.418C146.721,51.871,148.251,53.401,150.138,53.401z"/>
				<path style="fill:#A8DDDB;" d="M45.38,190.965c-2.971,0-5.38,2.409-5.38,5.38c0,2.971,2.409,5.38,5.38,5.38
					c2.971,0,5.38-2.409,5.38-5.38C50.76,193.374,48.351,190.965,45.38,190.965z"/>
				<circle style="fill:#A8DDDB;" cx="32" cy="371.6" r="5"/>
			</g>
		</g>
		<g>
			<g>
				<path style="fill:#55A895;" d="M105.628,453.556v13.483h51.341v-71.723h-51.341v6.951
					c-13.284,0.993-23.791,12.111-23.791,25.645C81.838,441.445,92.345,452.563,105.628,453.556z M85.815,427.911
					c0-11.34,8.725-20.675,19.813-21.657v43.314C94.54,448.586,85.815,439.251,85.815,427.911z"/>
				<rect x="140.276" y="395.316" style="fill:#80D6BF;" width="16.694" height="71.723"/>
			</g>
			<g>
				<rect x="536.718" y="446.652" style="fill:#489381;" width="79.44" height="20.387"/>
				<path style="fill:#6DC0AF;" d="M651.885,467.039h-69.247v-20.387h69.247c5.63,0,10.193,4.564,10.193,10.193l0,0
					C662.078,462.475,657.515,467.039,651.885,467.039z"/>
				<rect x="541.5" y="452.735" style="fill:#BAE5E5;" width="41.138" height="8.866"/>
				<rect x="582.638" y="452.735" style="fill:#E8FFFF;" width="70.574" height="8.866"/>
			</g>
			<g>
				<rect x="564.186" y="426.274" style="fill:#489381;" width="79.44" height="20.387"/>
				<path style="fill:#6DC0AF;" d="M679.353,446.661h-69.247v-20.387h69.247c5.63,0,10.193,4.564,10.193,10.193l0,0
					C689.547,442.097,684.983,446.661,679.353,446.661z"/>
				<rect x="568.968" y="432.357" style="fill:#BAE5E5;" width="41.139" height="8.866"/>
				<rect x="610.107" y="432.357" style="fill:#E8FFFF;" width="70.574" height="8.866"/>
			</g>
		</g>
		<g>
			<path style="fill:#354542;" d="M592.912,118.914H175.393c-5.406,0-9.788,4.382-9.788,9.788v262.211
				c0,5.406,4.382,9.788,9.788,9.788h417.518c5.406,0,9.788-4.382,9.788-9.788V128.701
				C602.699,123.296,598.317,118.914,592.912,118.914z"/>
			<g>
				<path style="fill:#21302D;" d="M493.419,440.534c-37.664,0-39.834-39.834-39.834-39.834h-66.959h-4.948h-66.959
					c0,0-2.17,39.834-39.834,39.834H255.2v11.315h126.478h4.948h126.478v-11.315H493.419z"/>
				<path style="fill:#0E1413;" d="M386.626,400.699h-4.948h-66.959c0,0-0.731,13.39-8.684,24.643l147.55-24.643H386.626z"/>
			</g>
			<path style="fill:#F4E6EB;" d="M580.092,133.173h-391.88c-5.406,0-9.788,4.382-9.788,9.788v213.851
				c0,5.405,4.382,9.788,9.788,9.788h391.88c5.406,0,9.788-4.382,9.788-9.788V142.961
				C589.88,137.555,585.498,133.173,580.092,133.173z"/>
			<g>
				<polygon style="fill:#82D0BD;" points="510.475,446.579 404.457,446.579 363.848,446.579 257.829,446.579 165.451,457.119 
					363.848,457.119 404.457,457.119 602.854,457.119 				"/>
				<rect x="165.451" y="457.119" style="fill:#354542;" width="437.404" height="9.92"/>
			</g>
		</g>
		<g>
			<g>
				<path style="fill:#8EDDC6;" d="M604.35,46.566H356.974c-5.136,0-9.3,4.164-9.3,9.3v143.218c0,5.136,4.164,9.3,9.3,9.3H604.35
					c5.136,0,9.3-4.164,9.3-9.3V55.866C613.65,50.73,609.486,46.566,604.35,46.566z"/>
				<path style="fill:#418C7F;" d="M604.35,46.566H356.974c-5.136,0-9.3,4.164-9.3,9.3v12.09H613.65v-12.09
					C613.65,50.73,609.486,46.566,604.35,46.566z"/>
			</g>
			<g>
				<g>
					<g>
						<g>
							<path style="fill:#DE9595;" d="M482.677,146.307c-4.34-4.34-5.413-25.019-5.413-25.019l-11.534-1.948v-0.002l-0.006,0.001
								l-0.006-0.001v0.002l-11.534,1.948c0,0-1.072,20.679-5.412,25.019c0,0,3.846,4.027,16.946,4.03v0c0.002,0,0.004,0,0.006,0
								c0.002,0,0.004,0,0.006,0v0C478.831,150.334,482.677,146.307,482.677,146.307z"/>
							<path style="fill:#D37272;" d="M477.628,126.021c-0.262-2.801-0.363-4.733-0.363-4.733l-11.534-1.948v-0.002l-0.006,0.001
								l-0.006-0.001v0.002l-11.534,1.948C454.184,121.288,455.553,128.319,477.628,126.021z"/>
						</g>
						<g>
							<path style="fill:#DE9595;" d="M441.102,88.262L441.102,88.262c-3.177-2.843-6.828-3.933-9.411-2.559
								c-0.116,0.062-0.242,0.099-0.353,0.171c-2.123,1.367-2.909,4.266-2.399,7.602c0.336,2.195,1.227,4.578,2.686,6.845
								c3.02,4.69,7.486,7.389,10.937,6.957h0l0,0c0.369-0.046,0.73-0.117,1.073-0.237c0.356-0.124,0.702-0.275,1.022-0.481
								c3.519-2.266,3.391-8.734-0.287-14.446c-0.951-1.477-2.048-2.754-3.21-3.804C441.141,88.292,441.121,88.279,441.102,88.262
								L441.102,88.262z"/>
							<path style="fill:#DE9595;" d="M499.561,100.32c1.643-2.552,2.572-5.252,2.79-7.663c0.224-2.48-0.316-4.643-1.618-6.027
								c-0.266-0.283-0.554-0.544-0.885-0.757c-2.492-1.605-6.139-0.647-9.365,2.062l0,0c-0.152,0.128-0.308,0.238-0.458,0.373
								c-0.085,0.076-0.166,0.163-0.25,0.242c-1.068,1.004-2.078,2.192-2.96,3.562c-3.678,5.712-3.807,12.18-0.287,14.446
								c0.321,0.206,0.666,0.357,1.022,0.481c0.599,0.209,1.245,0.295,1.918,0.283c0.001,0,0.003,0,0.004,0l0,0
								C492.783,107.263,496.784,104.634,499.561,100.32z"/>
						</g>
						<path style="fill:#ECC1BA;" d="M466.492,124.328c4.614-0.089,8.888-1.464,12.536-3.743c0.655-0.409,1.296-0.837,1.908-1.303
							c0.564-0.429,1.102-0.889,1.626-1.364c5.107-4.623,8.281-11.323,8.137-18.751l-0.6-31.034l-49.369,0.954l0.6,31.034
							c0.108,5.586,2.085,10.686,5.294,14.762c0.92,1.169,1.946,2.249,3.058,3.233c1.073,0.949,2.226,1.809,3.45,2.563
							C457.013,123.071,461.594,124.423,466.492,124.328z"/>
						<g>
							<g>
								<path style="fill:#6D3321;" d="M473.188,89.178c0,0,6.884-3.829,11.624,0.335c4.74,4.164,1.38-3.196-3.405-4.469
									c-4.785-1.273-6.597,0.489-6.597,0.489s-0.604-0.732-1.321-0.816C471.499,84.483,470.18,90.551,473.188,89.178z"/>
								<path style="fill:#6D3321;" d="M456.621,89.167c0,0-6.953-3.703-11.616,0.548c-4.663,4.25-1.438-3.171,3.323-4.531
									c4.761-1.36,6.605,0.369,6.605,0.369s0.591-0.743,1.306-0.84C458.223,84.442,459.654,90.484,456.621,89.167z"/>
							</g>
							<g>
								<path style="fill:#DF7660;" d="M446.318,105.281c-1.813,1.301-1.281,5.144,1.188,8.584c2.469,3.44,5.939,5.175,7.752,3.875
									c1.813-1.301,1.281-5.144-1.188-8.584C451.601,105.715,448.131,103.98,446.318,105.281z"/>
								<path style="fill:#DF7660;" d="M485.241,105.281c1.813,1.301,1.281,5.144-1.188,8.584c-2.469,3.44-5.939,5.175-7.752,3.875
									c-1.813-1.301-1.281-5.144,1.188-8.584C479.958,105.715,483.429,103.98,485.241,105.281z"/>
							</g>
							<g>
								<path style="fill:#EA344F;" d="M469.573,104.242l-0.216-0.002l-3.282-0.029l-0.691-0.006l-3.282-0.029l-0.216-0.002
									c-0.31-0.003-0.563,0.183-0.565,0.414l-0.015,1.74c-0.002,0.231,0.248,0.421,0.558,0.424l0.216,0.002
									c0,0,1.179,0.161,1.346,0.742c0,0-0.031,0.3,1.293,0.312c0.259,0.002,0.466,0.004,0.633,0.005
									c0.69,0.006,0.691,0.006,0.691,0.006c0.168,0.002,0.375,0.003,0.633,0.006c1.324,0.012,1.298-0.289,1.298-0.289
									c0.178-0.578,1.36-0.718,1.36-0.718l0.216,0.002c0.31,0.003,0.563-0.182,0.565-0.414l0.016-1.74
									C470.133,104.435,469.883,104.245,469.573,104.242z"/>
								<path style="fill:#E0A38B;" d="M461.626,104.225c0,0,3.21-4.556,8.209,0.075L461.626,104.225z"/>
							</g>
							<g>
								<path style="fill:#1E132B;" d="M451.174,93.763c-0.685,0-1.24,0.555-1.24,1.24v4.34h2.48v-4.34
									C452.414,94.318,451.859,93.763,451.174,93.763z"/>
								<path style="fill:#1E132B;" d="M478.725,93.763c-0.685,0-1.24,0.555-1.24,1.24v4.34h2.48v-4.34
									C479.965,94.318,479.41,93.763,478.725,93.763z"/>
							</g>
							<path style="fill:#EEF1F0;" d="M460.549,112.363c0,0,4.29,3.208,10.363,0C470.912,112.363,465.973,120.384,460.549,112.363z"
								/>
						</g>
					</g>
					<g>
						<path style="fill:#322142;" d="M488.739,51.954c-2.052-2.185-4.789-3.84-8.05-5.006c2.874-1.555,4.737-3.68,5.093-6.208
							c0.918-6.525-8.52-13.247-21.08-15.014c-12.56-1.767-23.487,2.089-24.405,8.614c-0.655,4.659,3.971,9.417,11.242,12.401
							c-1.024,0.221-2.056,0.458-3.1,0.719c-17.98,4.495-17.102,38.415-17.102,38.415c1.966-2.441,6.664,0.243,6.664,0.243
							l3.882,18.731l0.2-16.881c0.189-0.037,0.399-0.078,0.651-0.13c3.44-0.696,12.525-8.914,12.525-8.914l-4.085,7.44
							c7.85-0.465,21.445-6.82,21.445-6.82l-5.89,6.82c8.418-0.968,17.242-8.68,17.242-8.68c1.277,4.96,3.838,4.34,3.838,4.34
							l2.631,21.237l2.19-16.829c2.855-2.119,8.103,0.199,8.103,0.199C500.168,76.327,495.868,59.549,488.739,51.954z"/>
						<path style="fill:#EEF1F0;" d="M451.539,46.741c0,0,14.28-6.117,29.15,0.207C480.689,46.948,464.713,32.305,451.539,46.741z"
							/>
					</g>
				</g>
				<g>
					<path style="fill:#411772;" d="M455.891,133.173c0,0,8.011,8.215,19.654,0v50.365h-19.654V133.173z"/>
					<g>
						<path style="fill:#EEF1F0;" d="M538.618,208.215l-0.038-0.052c-0.679-3.884-10.471-59.661-13.912-63.252
							c-3.565-3.72-47.055-18.901-47.055-18.901s-0.131,1.246-0.818,2.831l-11.078,38.356l-11.078-38.356
							c-0.687-1.585-0.818-2.831-0.818-2.831s-43.49,15.182-47.055,18.901c-3.441,3.59-13.233,59.368-13.911,63.252l-0.038,0.052
							h0.029c-0.019,0.11-0.029,0.168-0.029,0.168h63.516v-0.168h9.385h9.385v0.168h63.516c0,0-0.01-0.058-0.029-0.168H538.618z"/>
						<g>
							<polygon style="fill:#CAB5E5;" points="516.611,158.694 514.246,208.384 518.471,208.215 							"/>
							<polygon style="fill:#CAB5E5;" points="413.363,208.215 417.588,208.384 415.223,158.694 							"/>
							<polygon style="fill:#CAB5E5;" points="453.822,126.011 447.215,173.82 465.718,167.197 451.408,167.197 							"/>
							<polygon style="fill:#CAB5E5;" points="480.285,167.197 465.975,167.197 484.478,173.82 477.871,126.011 							"/>
						</g>
					</g>
				</g>
				<g>
					<g>
						<path style="fill:#7499B2;" d="M439.603,131.606c-5.596,8.335-3.47,19.072-3.377,19.525l0.911-0.187
							c-0.022-0.107-2.142-10.806,3.239-18.821c2.923-4.353,7.525-7.146,13.679-8.3l-0.171-0.914
							C447.475,124.112,442.671,127.037,439.603,131.606z"/>
						<path style="fill:#7499B2;" d="M489.341,130.938c-2.744-4.347-6.705-7.023-11.772-7.955l-0.169,0.916
							c4.802,0.882,8.554,3.417,11.154,7.535c9.327,14.773,1.242,45.409,1.16,45.717l0.897,0.242
							C490.954,176.119,498.886,146.056,489.341,130.938z"/>
					</g>
					<path style="fill:#7499B2;" d="M436.806,151.795c0.72-0.143,4.081-0.489,6.603,4.729c1.22,2.522,3.633,8.962,5.56,15.374
						c3.656,12.163,2.295,13.175,1.641,13.661c-1.45,1.079-3.595,1.951-5.064,2.473c-0.017,0.105-0.041,0.21-0.078,0.313
						c-0.319,0.887-1.296,1.348-2.184,1.03c-0.887-0.319-1.348-1.296-1.03-2.184c0.319-0.887,1.296-1.348,2.184-1.03
						c0.123,0.044,0.235,0.103,0.341,0.171c1.341-0.47,3.367-1.273,4.674-2.227c1.155-2.195-4.961-21.08-7.715-26.776
						c-2.052-4.242-4.453-3.749-4.584-3.715c-0.051,0.014-0.101,0.005-0.152,0.01c-0.036,0.004-0.068,0.021-0.106,0.021
						c-0.105-0.004-2.58,0.054-3.583,4.69c-1.336,6.184-2.834,25.978-1.195,27.839c1.562,0.648,3.843,0.949,5.247,1.081
						c0.429-0.623,1.233-0.91,1.978-0.643c0.887,0.319,1.348,1.296,1.03,2.184c-0.319,0.887-1.296,1.348-2.184,1.03
						c-0.376-0.135-0.67-0.393-0.866-0.708c-1.522-0.137-4.142-0.474-5.988-1.259c-0.75-0.318-2.312-0.982-1.622-13.664
						c0.364-6.686,1.193-13.513,1.785-16.251C432.725,152.281,436.074,151.826,436.806,151.795z"/>
					<path style="fill:#413563;" d="M443.054,155.137l-2.122,1.703c0,0-1.581-3.064-3.848-3.015c0,0-2.034,0.406-2.963,2.757
						l-2.28-0.603c0,0,0.957-3.694,3.824-4.297l0.039-1.823c0,0,0.782-1.149,1.967,0.079l0.268,1.42
						C437.939,151.359,440.947,151.822,443.054,155.137z"/>
					<g>
						<circle style="fill:#7499B2;" cx="490.164" cy="178.557" r="5.781"/>
						<path style="fill:#DCE9F4;" d="M485.426,178.557c0,2.616,2.121,4.737,4.737,4.737s4.737-2.121,4.737-4.737
							c0-2.616-2.121-4.737-4.737-4.737S485.426,175.941,485.426,178.557z"/>
					</g>
				</g>
			</g>
		</g>
		<g>
			<g>
				<path style="fill:#6BC1AA;" d="M354.4,31.451H107.023c-5.136,0-9.3,4.164-9.3,9.3v143.218c0,5.136,4.164,9.3,9.3,9.3H354.4
					c5.136,0,9.3-4.164,9.3-9.3V40.751C363.7,35.614,359.536,31.451,354.4,31.451z"/>
				<path style="fill:#418C7F;" d="M354.4,31.451H107.023c-5.136,0-9.3,4.164-9.3,9.3v12.09H363.7v-12.09
					C363.7,35.614,359.536,31.451,354.4,31.451z"/>
			</g>
			<g>
				<g>
					<g>
						<g>
							<path style="fill:#B75F5F;" d="M192.206,69.602c-0.116,0.062-0.242,0.099-0.353,0.171c-2.123,1.367-2.909,4.266-2.399,7.602
								c0.335,2.195,1.227,4.578,2.686,6.845c3.02,4.69,7.486,7.389,10.937,6.957h0c0.369-0.046,0.73-0.117,1.073-0.237
								c0.356-0.124,0.702-0.275,1.023-0.481c3.519-2.266,3.391-8.734-0.287-14.446c-0.951-1.477-2.048-2.754-3.21-3.804
								c-0.019-0.017-0.039-0.03-0.058-0.047C198.44,69.318,194.789,68.228,192.206,69.602z"/>
							<path style="fill:#B75F5F;" d="M260.076,84.22c1.643-2.552,2.573-5.252,2.79-7.663c0.224-2.48-0.316-4.643-1.618-6.027
								c-0.266-0.283-0.554-0.544-0.885-0.757c-2.492-1.605-6.139-0.647-9.365,2.062c-0.152,0.127-0.308,0.238-0.458,0.373
								c-0.085,0.077-0.166,0.163-0.25,0.242c-1.068,1.004-2.078,2.193-2.96,3.562c-3.678,5.712-3.807,12.18-0.287,14.446
								c0.321,0.206,0.666,0.357,1.022,0.481c0.599,0.209,1.245,0.295,1.917,0.283c0.001,0,0.003,0,0.004,0
								C253.298,91.163,257.299,88.533,260.076,84.22z"/>
						</g>
						<g>
							<path style="fill:#B75F5F;" d="M243.192,130.207c-4.34-4.34-5.413-25.019-5.413-25.019l-11.534-1.948v-0.002l-0.006,0.001
								l-0.006-0.001v0.002l-11.534,1.948c0,0-1.073,20.679-5.413,25.019c0,0,3.846,4.027,16.946,4.03v0c0.002,0,0.004,0,0.006,0
								c0.002,0,0.004,0,0.006,0v0C239.346,134.234,243.192,130.207,243.192,130.207z"/>
							<path style="fill:#893030;" d="M238.143,109.921c-0.262-2.801-0.363-4.733-0.363-4.733l-11.534-1.948v-0.002l-0.006,0.001
								l-0.006-0.001v0.002l-11.534,1.948C214.7,105.187,216.068,112.218,238.143,109.921z"/>
						</g>
						<path style="fill:#D89891;" d="M227.008,108.227c4.614-0.089,8.888-1.464,12.536-3.743c0.655-0.409,1.296-0.838,1.908-1.304
							c0.564-0.429,1.102-0.889,1.627-1.364c5.107-4.622,8.281-11.323,8.137-18.751l-0.6-31.034l-49.37,0.954l0.6,31.034
							c0.108,5.586,2.085,10.686,5.294,14.762c0.92,1.169,1.946,2.249,3.058,3.233c1.073,0.949,2.226,1.809,3.45,2.563
							C217.528,106.97,222.109,108.322,227.008,108.227z"/>
						<g>
							<g>
								<path style="fill:#702828;" d="M233.703,73.078c0,0,6.884-3.829,11.624,0.335c4.74,4.164,1.38-3.196-3.405-4.469
									c-4.785-1.273-6.597,0.489-6.597,0.489s-0.604-0.732-1.321-0.816C232.015,68.383,230.695,74.451,233.703,73.078z"/>
								<path style="fill:#702828;" d="M217.136,73.066c0,0-6.953-3.703-11.616,0.548c-4.663,4.25-1.438-3.171,3.323-4.531
									c4.761-1.36,6.605,0.369,6.605,0.369s0.591-0.743,1.306-0.84C218.739,68.341,220.169,74.384,217.136,73.066z"/>
							</g>
							<g>
								<path style="fill:#DF7660;" d="M206.833,89.18c-1.813,1.301-1.281,5.144,1.188,8.584c2.469,3.44,5.939,5.175,7.752,3.875
									c1.813-1.3,1.281-5.144-1.188-8.584C212.117,89.614,208.646,87.88,206.833,89.18z"/>
								<path style="fill:#DF7660;" d="M245.757,89.18c1.813,1.301,1.281,5.144-1.188,8.584c-2.469,3.44-5.939,5.175-7.752,3.875
									c-1.813-1.3-1.281-5.144,1.188-8.584C240.474,89.614,243.944,87.88,245.757,89.18z"/>
							</g>
							<g>
								<path style="fill:#EA344F;" d="M230.088,88.142l-0.216-0.002l-3.282-0.029l-0.691-0.006l-3.282-0.029l-0.216-0.002
									c-0.31-0.003-0.563,0.183-0.565,0.414l-0.015,1.74c-0.002,0.231,0.248,0.421,0.558,0.424l0.216,0.002
									c0,0,1.179,0.161,1.347,0.742c0,0-0.031,0.3,1.293,0.312c0.259,0.002,0.466,0.004,0.633,0.006
									c0.69,0.006,0.691,0.006,0.691,0.006c0.167,0.002,0.375,0.003,0.633,0.006c1.324,0.012,1.298-0.289,1.298-0.289
									c0.178-0.578,1.36-0.718,1.36-0.718l0.216,0.002c0.31,0.003,0.563-0.183,0.565-0.414l0.016-1.74
									C230.648,88.334,230.398,88.144,230.088,88.142z"/>
								<path style="fill:#B76F58;" d="M222.141,88.124c0,0,3.21-4.556,8.209,0.075L222.141,88.124z"/>
							</g>
							<path style="fill:#EEF1F0;" d="M221.065,96.262c0,0,4.29,3.208,10.363,0C231.428,96.262,226.488,104.283,221.065,96.262z"/>
							<g>
								<path style="fill:#1E132B;" d="M212.71,77.318c-0.685,0-1.24,0.555-1.24,1.24v4.34h2.48v-4.34
									C213.95,77.874,213.395,77.318,212.71,77.318z"/>
								<path style="fill:#1E132B;" d="M239.774,77.318c-0.685,0-1.24,0.555-1.24,1.24v4.34h2.48v-4.34
									C241.014,77.874,240.459,77.318,239.774,77.318z"/>
							</g>
						</g>
						<path style="fill:#5B2322;" d="M259.22,58.158c0.376-1,0.592-2.079,0.592-3.211c0-2.494-1.002-4.752-2.623-6.401
							c1.621-1.648,2.623-3.906,2.623-6.401c0-5.044-4.089-9.132-9.132-9.132c-0.836,0-1.642,0.122-2.411,0.332
							c-1.333-3.391-4.63-5.796-8.494-5.796c-0.332,0-0.659,0.02-0.982,0.055c-1.369-3.316-4.631-5.65-8.441-5.65
							c-4.143,0-7.637,2.761-8.754,6.542c-1.585-1.325-3.624-2.124-5.852-2.124c-2.877,0-5.44,1.333-7.114,3.412
							c-1.287-0.693-2.758-1.087-4.322-1.087c-3.927,0-7.265,2.483-8.555,5.962c-4.493,0.573-7.969,4.402-7.969,9.05
							c0,2.949,1.404,5.564,3.573,7.234c-3.732,0.49-6.615,3.675-6.615,7.541c0,3.738,2.695,6.84,6.247,7.485
							c-0.052,0.358-0.087,0.721-0.087,1.093c0,4.205,3.409,7.614,7.614,7.614c3.121,0,5.8-1.88,6.976-4.568
							c1.645-0.208,3.125-0.939,4.27-2.024c0.926,0.316,1.915,0.495,2.948,0.495c1.615,0,3.129-0.423,4.445-1.158
							c1.617,2.564,4.467,4.272,7.722,4.272c3.19,0,5.994-1.638,7.628-4.117c0.256,0.021,0.513,0.039,0.774,0.039
							c0.687,0,1.354-0.082,1.997-0.226c1.328,0.754,2.861,1.19,4.498,1.19c1.396,0,2.713-0.322,3.896-0.882
							c1.644,2.411,4.411,3.996,7.55,3.996c5.044,0,9.132-4.089,9.132-9.132C260.353,60.964,259.94,59.464,259.22,58.158z"/>
					</g>
					<g>
						<g>
							<polygon style="fill:#354640;" points="238.819,115.784 226.246,123.328 213.78,115.784 190.997,193.268 226.246,193.268 
								261.495,193.268 							"/>
							<g>
								<polygon style="fill:#26332E;" points="216.849,193.268 219.91,193.268 214.7,116.34 								"/>
								<polygon style="fill:#26332E;" points="233.279,193.268 235.742,193.268 238.143,116.34 								"/>
							</g>
						</g>
						<g>
							<g>
								<path style="fill:#EEF1F0;" d="M178.41,122.705c-4.883,7.44-23.482,52.777-23.482,70.563h61.921l-2.468-83.821
									C214.38,109.447,183.292,115.266,178.41,122.705z"/>
								<path style="fill:#EEF1F0;" d="M274.181,122.705c-4.883-7.44-35.97-13.258-35.97-13.258l-2.469,83.821h61.921
									C297.663,175.483,279.063,130.145,274.181,122.705z"/>
							</g>
							<g>
								<path style="fill:#CAB5E5;" d="M180.27,193.268l2.092-48.243c-4.65,6.975-10.695,48.243-10.695,48.243H180.27z"/>
								<path style="fill:#CAB5E5;" d="M270.228,145.025l2.092,48.243h8.602C280.923,193.268,274.878,152,270.228,145.025z"/>
							</g>
						</g>
					</g>
				</g>
				<g>
					<g>
						<path style="fill:#7499B2;" d="M200.119,115.506c-5.596,8.335-3.47,19.072-3.377,19.525l0.911-0.187
							c-0.022-0.107-2.142-10.806,3.239-18.82c2.923-4.353,7.525-7.146,13.679-8.3l-0.171-0.914
							C207.991,108.011,203.186,110.936,200.119,115.506z"/>
						<path style="fill:#7499B2;" d="M249.857,114.837c-2.744-4.347-6.705-7.023-11.772-7.955l-0.169,0.915
							c4.802,0.882,8.554,3.418,11.154,7.535c9.327,14.773,1.242,45.409,1.16,45.716l0.897,0.242
							C251.47,160.019,259.401,129.956,249.857,114.837z"/>
					</g>
					<path style="fill:#7499B2;" d="M197.321,135.694c0.72-0.142,4.081-0.489,6.603,4.729c1.22,2.522,3.633,8.962,5.56,15.375
						c3.656,12.163,2.295,13.175,1.641,13.661c-1.45,1.078-3.595,1.951-5.064,2.473c-0.017,0.105-0.041,0.21-0.078,0.313
						c-0.319,0.887-1.296,1.348-2.184,1.03c-0.887-0.319-1.348-1.296-1.03-2.184c0.319-0.887,1.296-1.348,2.184-1.03
						c0.123,0.044,0.235,0.103,0.341,0.171c1.341-0.47,3.367-1.273,4.674-2.227c1.155-2.195-4.961-21.08-7.715-26.776
						c-2.052-4.242-4.453-3.75-4.584-3.715c-0.051,0.014-0.101,0.005-0.152,0.01c-0.036,0.004-0.068,0.021-0.106,0.021
						c-0.104-0.004-2.58,0.054-3.583,4.69c-1.336,6.184-2.834,25.977-1.195,27.839c1.562,0.647,3.843,0.949,5.247,1.081
						c0.429-0.623,1.233-0.911,1.978-0.643c0.887,0.319,1.348,1.296,1.03,2.184c-0.319,0.887-1.296,1.348-2.184,1.03
						c-0.376-0.135-0.67-0.393-0.866-0.708c-1.522-0.137-4.142-0.474-5.988-1.259c-0.75-0.319-2.312-0.982-1.622-13.664
						c0.364-6.686,1.193-13.513,1.785-16.251C193.24,136.18,196.59,135.725,197.321,135.694z"/>
					<path style="fill:#413563;" d="M203.569,139.036l-2.122,1.703c0,0-1.581-3.064-3.848-3.015c0,0-2.034,0.406-2.963,2.758
						l-2.28-0.603c0,0,0.957-3.694,3.824-4.297l0.038-1.823c0,0,0.782-1.149,1.967,0.079l0.268,1.42
						C198.454,135.258,201.462,135.722,203.569,139.036z"/>
					<g>
						<path style="fill:#7499B2;" d="M244.898,162.457c0,3.193,2.588,5.781,5.781,5.781c3.193,0,5.782-2.588,5.782-5.781
							c0-3.193-2.589-5.781-5.782-5.781C247.486,156.676,244.898,159.264,244.898,162.457z"/>
						<path style="fill:#DCE9F4;" d="M245.942,162.457c0,2.616,2.121,4.737,4.737,4.737c2.617,0,4.737-2.121,4.737-4.737
							s-2.121-4.737-4.737-4.737C248.063,157.72,245.942,159.841,245.942,162.457z"/>
					</g>
				</g>
			</g>
		</g>
		<g>
			<g>
				<path style="fill:#7ACCBC;" d="M308.808,185.494H61.431c-5.136,0-9.3,4.164-9.3,9.3v143.218c0,5.136,4.164,9.3,9.3,9.3h247.376
					c5.136,0,9.3-4.164,9.3-9.3V194.794C318.107,189.657,313.944,185.494,308.808,185.494z"/>
				<path style="fill:#418C7F;" d="M308.808,185.494H61.431c-5.136,0-9.3,4.164-9.3,9.3v12.09h265.976v-12.09
					C318.107,189.657,313.944,185.494,308.808,185.494z"/>
			</g>
			<g>
				<g>
					<g>
						<path style="fill:#DE9595;" d="M149.301,224.63c-0.116,0.062-0.242,0.1-0.353,0.171c-2.123,1.367-2.909,4.266-2.399,7.602
							c0.335,2.195,1.227,4.578,2.686,6.845c3.02,4.69,7.486,7.389,10.937,6.957h0c0.369-0.046,0.73-0.117,1.073-0.237
							c0.356-0.124,0.702-0.275,1.023-0.481c3.519-2.266,3.391-8.734-0.287-14.446c-0.951-1.477-2.048-2.754-3.21-3.804
							c-0.019-0.017-0.039-0.03-0.058-0.047C155.535,224.346,151.884,223.256,149.301,224.63z"/>
						<path style="fill:#DE9595;" d="M217.171,239.248c1.643-2.552,2.572-5.252,2.79-7.663c0.224-2.48-0.316-4.643-1.618-6.026
							c-0.266-0.283-0.554-0.544-0.885-0.757c-2.492-1.605-6.139-0.647-9.365,2.062c-0.152,0.128-0.308,0.238-0.458,0.373
							c-0.085,0.077-0.166,0.163-0.25,0.242c-1.068,1.004-2.078,2.192-2.96,3.562c-3.678,5.712-3.807,12.18-0.287,14.446
							c0.321,0.206,0.666,0.357,1.022,0.481c0.599,0.209,1.245,0.295,1.918,0.283c0.001,0,0.003,0,0.004,0
							C210.393,246.191,214.394,243.561,217.171,239.248z"/>
					</g>
					<g>
						<path style="fill:#DE9595;" d="M200.287,285.235c-4.34-4.34-5.413-25.019-5.413-25.019l-11.534-1.948v-0.002l-0.006,0.001
							l-0.006-0.001v0.002l-11.534,1.948c0,0-1.072,20.679-5.412,25.019c0,0,3.846,4.027,16.946,4.03v0c0.002,0,0.004,0,0.006,0
							s0.004,0,0.006,0v0C196.441,289.262,200.287,285.235,200.287,285.235z"/>
						<path style="fill:#D37272;" d="M195.238,264.949c-0.262-2.801-0.363-4.733-0.363-4.733l-11.534-1.948v-0.002l-0.006,0.001
							l-0.006-0.001v0.002l-11.534,1.948C171.794,260.216,173.163,267.246,195.238,264.949z"/>
					</g>
					<path style="fill:#ECC1BA;" d="M184.103,263.255c4.614-0.089,8.888-1.464,12.536-3.743c0.655-0.409,1.296-0.837,1.908-1.303
						c0.564-0.429,1.102-0.889,1.627-1.364c5.107-4.623,8.28-11.323,8.137-18.751l-0.6-31.034l-49.369,0.954l0.6,31.034
						c0.108,5.586,2.085,10.686,5.294,14.762c0.92,1.169,1.946,2.249,3.058,3.233c1.073,0.949,2.226,1.809,3.45,2.563
						C174.623,261.998,179.204,263.35,184.103,263.255z"/>
					<path style="fill:#322142;" d="M159.627,226.04c0,0,1.549-1.022,2.13-6.718c0.581-5.696,10.016,5.348,27.27,2.209
						c17.253-3.139,16.788,0.274,17.602,5.659c0.814,5.385,0.853,17.738,0.853,17.738s4.458-10.298,3.314-19.87
						c0,0,3.148-1.527,5.71-0.725c0,0,2.214-23.378-4.529-28.144c-6.742-4.766-6.394-2.441-6.394-2.441s-21.991-9.532-36.153-5.115
						c-14.162,4.417-18.6,15.014-18.716,35.407c0,0,4.301,0.203,5.464,2.567c0,0,1.564,14.977,3.316,17.169L159.627,226.04z"/>
					<g>
						<g>
							<path style="fill:#5B2322;" d="M190.798,228.106c0,0,6.884-3.829,11.624,0.335c4.74,4.164,1.38-3.196-3.405-4.469
								c-4.785-1.273-6.597,0.489-6.597,0.489s-0.604-0.732-1.321-0.816C189.11,223.411,187.79,229.479,190.798,228.106z"/>
							<path style="fill:#5B2322;" d="M174.231,228.094c0,0-6.953-3.703-11.616,0.548c-4.663,4.25-1.438-3.171,3.323-4.531
								c4.761-1.36,6.605,0.369,6.605,0.369s0.591-0.743,1.306-0.84C175.834,223.369,177.264,229.412,174.231,228.094z"/>
						</g>
						<g>
							<path style="fill:#DF7660;" d="M163.928,244.208c-1.813,1.301-1.281,5.144,1.188,8.584c2.469,3.44,5.939,5.175,7.752,3.875
								c1.813-1.301,1.281-5.144-1.188-8.584C169.212,244.642,165.741,242.908,163.928,244.208z"/>
							<path style="fill:#DF7660;" d="M202.852,244.208c1.813,1.301,1.281,5.144-1.188,8.584c-2.468,3.44-5.939,5.175-7.751,3.875
								c-1.813-1.301-1.281-5.144,1.188-8.584C197.569,244.642,201.039,242.908,202.852,244.208z"/>
						</g>
						<g>
							<path style="fill:#EA344F;" d="M187.183,243.17l-0.216-0.002l-3.282-0.029l-0.691-0.006l-3.282-0.029l-0.216-0.002
								c-0.31-0.003-0.563,0.182-0.565,0.414l-0.015,1.74c-0.002,0.231,0.248,0.421,0.558,0.424l0.216,0.002
								c0,0,1.179,0.161,1.347,0.742c0,0-0.031,0.3,1.293,0.312c0.259,0.002,0.466,0.004,0.633,0.005
								c0.69,0.006,0.691,0.006,0.691,0.006c0.167,0.002,0.374,0.003,0.633,0.006c1.324,0.012,1.298-0.289,1.298-0.289
								c0.178-0.578,1.36-0.718,1.36-0.718l0.216,0.002c0.31,0.003,0.563-0.182,0.565-0.414l0.016-1.74
								C187.743,243.362,187.493,243.172,187.183,243.17z"/>
							<path style="fill:#E0A38B;" d="M179.236,243.152c0,0,3.21-4.556,8.209,0.075L179.236,243.152z"/>
						</g>
						<path style="fill:#EEF1F0;" d="M178.16,251.29c0,0,4.29,3.208,10.363,0C188.522,251.29,183.583,259.311,178.16,251.29z"/>
						<g>
							<circle style="fill:#1E132B;" cx="196.316" cy="235.074" r="1.918"/>
							<circle style="fill:#1E132B;" cx="169.281" cy="235.074" r="1.918"/>
						</g>
					</g>
					<path style="fill:#EEF1F0;" d="M195.914,222.357c-6.351,0-11.518,5.167-11.518,11.518c0,2.376,0.724,4.586,1.962,6.422
						c-2.757-0.629-5.421-0.264-6.973,0.081c1.272-1.852,2.02-4.091,2.02-6.503c0-6.351-5.167-11.518-11.518-11.518
						c-6.351,0-11.518,5.167-11.518,11.518c0,6.351,5.167,11.518,11.518,11.518c3.378,0,6.411-1.47,8.52-3.794
						c0.661-0.21,4.948-1.448,8.943-0.049c2.11,2.352,5.162,3.843,8.564,3.843c6.351,0,11.518-5.167,11.518-11.518
						C207.431,227.524,202.265,222.357,195.914,222.357z M169.887,244.462c-5.838,0-10.588-4.75-10.588-10.588
						c0-5.839,4.75-10.588,10.588-10.588c5.838,0,10.588,4.749,10.588,10.588C180.474,239.713,175.725,244.462,169.887,244.462z
						 M195.914,244.462c-3.203,0-6.072-1.436-8.015-3.69l0.007-0.018c-0.011-0.004-0.022-0.007-0.033-0.011
						c-1.583-1.851-2.546-4.248-2.546-6.869c0-5.839,4.75-10.588,10.588-10.588c5.838,0,10.588,4.749,10.588,10.588
						C206.501,239.713,201.751,244.462,195.914,244.462z"/>
				</g>
				<g>
					<g>
						<polygon style="fill:#342B47;" points="195.913,270.812 183.341,278.26 170.875,270.812 148.092,347.311 183.341,347.311 
							218.59,347.311 						"/>
						<g>
							<polygon style="fill:#201B2D;" points="180.241,282.367 183.341,278.26 170.875,270.812 							"/>
							<polygon style="fill:#201B2D;" points="183.394,278.26 186.494,282.367 195.86,270.812 							"/>
						</g>
						<polygon style="fill:#7ACCBC;" points="183.341,324.955 188.306,297.011 184.861,281.922 186.387,280.139 183.341,278.264 
							183.341,278.26 183.338,278.262 183.335,278.26 183.335,278.264 180.289,280.139 181.815,281.922 178.37,297.011 
							183.335,324.955 183.335,324.992 183.338,324.973 183.341,324.992 						"/>
						<g>
							<polygon style="fill:#625684;" points="177.393,281.922 183.341,278.26 170.875,270.812 							"/>
							<polygon style="fill:#625684;" points="183.341,278.26 189.289,281.922 195.913,270.812 							"/>
						</g>
					</g>
					<g>
						<path style="fill:#EEF1F0;" d="M241.872,283.84c-3.565-3.72-47.055-18.902-47.055-18.902l-11.366,52.547l-0.326,4.648
							l-0.326-4.648l-11.366-52.547c0,0-43.49,15.182-47.055,18.902c-3.565,3.72-13.95,63.471-13.95,63.471h70.93h3.533h70.93
							C255.821,347.311,245.436,287.56,241.872,283.84z"/>
						<g>
							<polygon style="fill:#CAB5E5;" points="182.798,317.485 172.646,311.704 175.901,303.757 167.686,302.207 171.432,264.938 
								164.276,303.755 171.795,306.125 167.686,311.704 							"/>
							<polygon style="fill:#CAB5E5;" points="129.958,347.311 135.537,347.311 132.747,311.274 							"/>
							<polygon style="fill:#CAB5E5;" points="194.817,264.938 198.563,302.207 190.348,303.757 193.603,311.704 183.451,317.485 
								198.563,311.704 194.455,306.125 201.973,303.755 							"/>
							<polygon style="fill:#CAB5E5;" points="233.502,311.274 230.712,347.311 236.292,347.311 							"/>
							<path style="fill:#CAB5E5;" d="M183.125,326.387c-0.975,0-1.766,0.791-1.766,1.766c0,0.975,0.791,1.766,1.766,1.766
								c0.976,0,1.766-0.791,1.766-1.766C184.891,327.177,184.1,326.387,183.125,326.387z"/>
							<path style="fill:#CAB5E5;" d="M183.125,338.725c-0.975,0-1.766,0.791-1.766,1.766c0,0.975,0.791,1.766,1.766,1.766
								c0.976,0,1.766-0.791,1.766-1.766C184.891,339.516,184.1,338.725,183.125,338.725z"/>
						</g>
					</g>
				</g>
				<g>
					<g>
						<path style="fill:#7499B2;" d="M157.214,270.534c-5.596,8.335-3.47,19.072-3.377,19.525l0.911-0.187
							c-0.022-0.107-2.142-10.806,3.239-18.82c2.923-4.353,7.525-7.146,13.679-8.3l-0.171-0.914
							C165.086,263.039,160.281,265.964,157.214,270.534z"/>
						<path style="fill:#7499B2;" d="M206.952,269.865c-2.744-4.347-6.705-7.023-11.772-7.955l-0.169,0.915
							c4.802,0.882,8.554,3.417,11.154,7.535c9.327,14.773,1.242,45.409,1.16,45.716l0.897,0.242
							C208.565,315.047,216.496,284.984,206.952,269.865z"/>
					</g>
					<path style="fill:#7499B2;" d="M154.416,290.722c0.72-0.142,4.081-0.489,6.603,4.729c1.22,2.522,3.633,8.962,5.56,15.374
						c3.656,12.163,2.295,13.175,1.641,13.661c-1.45,1.079-3.595,1.951-5.064,2.473c-0.017,0.105-0.041,0.21-0.078,0.314
						c-0.319,0.887-1.296,1.348-2.184,1.03c-0.887-0.319-1.348-1.296-1.03-2.184c0.319-0.888,1.296-1.348,2.184-1.03
						c0.123,0.044,0.235,0.103,0.341,0.171c1.341-0.47,3.367-1.273,4.674-2.226c1.155-2.195-4.961-21.08-7.715-26.776
						c-2.052-4.242-4.453-3.75-4.584-3.715c-0.051,0.014-0.101,0.005-0.152,0.01c-0.036,0.004-0.069,0.021-0.106,0.021
						c-0.105-0.004-2.58,0.054-3.583,4.69c-1.336,6.184-2.834,25.977-1.195,27.839c1.562,0.647,3.843,0.949,5.247,1.081
						c0.429-0.623,1.233-0.91,1.978-0.643c0.887,0.319,1.348,1.296,1.03,2.184c-0.319,0.887-1.296,1.348-2.184,1.03
						c-0.376-0.135-0.67-0.393-0.866-0.708c-1.521-0.137-4.142-0.474-5.988-1.259c-0.75-0.319-2.312-0.982-1.622-13.664
						c0.364-6.686,1.193-13.513,1.785-16.251C150.335,291.208,153.684,290.753,154.416,290.722z"/>
					<path style="fill:#413563;" d="M160.664,294.064l-2.122,1.703c0,0-1.581-3.064-3.848-3.015c0,0-2.034,0.406-2.963,2.758
						l-2.28-0.603c0,0,0.957-3.694,3.824-4.297l0.038-1.823c0,0,0.782-1.149,1.967,0.079l0.268,1.42
						C155.549,290.286,158.557,290.75,160.664,294.064z"/>
					<g>
						<path style="fill:#7499B2;" d="M201.993,317.485c0,3.193,2.588,5.781,5.781,5.781c3.193,0,5.782-2.588,5.782-5.781
							c0-3.193-2.588-5.781-5.782-5.781C204.581,311.704,201.993,314.292,201.993,317.485z"/>
						<path style="fill:#DCE9F4;" d="M203.037,317.485c0,2.616,2.121,4.737,4.737,4.737c2.616,0,4.737-2.121,4.737-4.737
							s-2.121-4.737-4.737-4.737C205.158,312.748,203.037,314.869,203.037,317.485z"/>
					</g>
				</g>
			</g>
		</g>
		<g>
			<g>
				<path style="fill:#418C7F;" d="M699.298,184.611H451.922c-5.136,0-9.3,4.164-9.3,9.3v143.218c0,5.136,4.164,9.3,9.3,9.3h247.376
					c5.136,0,9.3-4.164,9.3-9.3V193.91C708.598,188.774,704.435,184.611,699.298,184.611z"/>
				<path style="fill:#C9F7E1;" d="M699.298,184.611H451.922c-5.136,0-9.3,4.164-9.3,9.3V206h265.976v-12.09
					C708.598,188.774,704.435,184.611,699.298,184.611z"/>
			</g>
			<g>
				<g>
					<g>
						<path style="fill:#DE9595;" d="M592.507,284.52c-4.34-4.34-5.413-25.019-5.413-25.019l-11.534-1.948v-0.002l-0.006,0.001
							l-0.006-0.001v0.002l-11.534,1.948c0,0-1.073,20.679-5.413,25.019c0,0,3.846,4.027,16.946,4.03v0c0.002,0,0.004,0,0.006,0
							s0.004,0,0.006,0v0C588.661,288.547,592.507,284.52,592.507,284.52z"/>
						<path style="fill:#D37272;" d="M587.458,264.234c-0.262-2.801-0.363-4.733-0.363-4.733l-11.534-1.948v-0.002l-0.006,0.001
							l-0.006-0.001v0.002l-11.534,1.948C564.015,259.501,565.383,266.531,587.458,264.234z"/>
					</g>
					<g>
						<path style="fill:#DE9595;" d="M550.932,226.475L550.932,226.475c-3.177-2.843-6.828-3.933-9.411-2.559
							c-0.116,0.062-0.242,0.1-0.353,0.171c-2.123,1.367-2.909,4.266-2.399,7.602c0.336,2.195,1.227,4.578,2.686,6.845
							c3.02,4.69,7.486,7.389,10.937,6.957h0l0,0c0.369-0.046,0.73-0.117,1.073-0.237c0.356-0.124,0.702-0.275,1.022-0.481
							c3.519-2.266,3.391-8.734-0.287-14.446c-0.951-1.477-2.048-2.754-3.21-3.804C550.971,226.505,550.951,226.492,550.932,226.475
							L550.932,226.475z"/>
						<path style="fill:#DE9595;" d="M609.391,238.533c1.643-2.552,2.573-5.252,2.79-7.663c0.224-2.48-0.316-4.643-1.618-6.027
							c-0.266-0.283-0.554-0.544-0.885-0.757c-2.492-1.605-6.139-0.647-9.365,2.062l0,0c-0.152,0.128-0.308,0.238-0.458,0.373
							c-0.085,0.076-0.166,0.163-0.25,0.242c-1.068,1.004-2.078,2.193-2.96,3.562c-3.678,5.712-3.807,12.18-0.287,14.446
							c0.321,0.206,0.666,0.357,1.022,0.481c0.599,0.209,1.245,0.295,1.918,0.283c0.001,0,0.003,0,0.004,0l0,0
							C602.613,245.476,606.614,242.846,609.391,238.533z"/>
					</g>
					<path style="fill:#ECC1BA;" d="M576.323,262.541c4.614-0.089,8.888-1.464,12.536-3.743c0.655-0.409,1.296-0.837,1.908-1.303
						c0.564-0.429,1.102-0.889,1.627-1.364c5.107-4.623,8.281-11.323,8.137-18.751l-0.6-31.034l-49.37,0.954l0.6,31.034
						c0.108,5.586,2.085,10.686,5.294,14.762c0.92,1.169,1.946,2.249,3.058,3.233c1.073,0.949,2.225,1.809,3.45,2.563
						C566.843,261.283,571.424,262.635,576.323,262.541z"/>
					<g>
						<g>
							<path style="fill:#6D3321;" d="M583.018,227.391c0,0,6.884-3.829,11.624,0.335c4.74,4.165,1.38-3.196-3.405-4.469
								c-4.785-1.273-6.597,0.489-6.597,0.489s-0.604-0.732-1.321-0.816C581.33,222.696,580.01,228.764,583.018,227.391z"/>
							<path style="fill:#6D3321;" d="M566.451,227.38c0,0-6.953-3.703-11.616,0.548c-4.663,4.25-1.438-3.171,3.323-4.531
								c4.761-1.36,6.605,0.369,6.605,0.369s0.591-0.743,1.306-0.84C568.054,222.654,569.484,228.697,566.451,227.38z"/>
						</g>
						<g>
							<path style="fill:#C4857A;" d="M556.148,243.493c-1.813,1.301-1.281,5.144,1.188,8.584c2.469,3.441,5.939,5.175,7.752,3.875
								c1.813-1.3,1.281-5.144-1.188-8.584C561.432,243.927,557.961,242.193,556.148,243.493z"/>
							<path style="fill:#C4857A;" d="M595.072,243.493c1.813,1.301,1.281,5.144-1.188,8.584c-2.469,3.441-5.939,5.175-7.751,3.875
								c-1.813-1.3-1.281-5.144,1.188-8.584C589.789,243.927,593.259,242.193,595.072,243.493z"/>
						</g>
						<g>
							<path style="fill:#EA344F;" d="M579.403,242.455l-0.216-0.002l-3.282-0.029l-0.691-0.006l-3.282-0.029l-0.216-0.002
								c-0.31-0.003-0.563,0.182-0.565,0.414l-0.015,1.74c-0.002,0.231,0.247,0.421,0.558,0.424l0.216,0.002
								c0,0,1.179,0.161,1.347,0.742c0,0-0.031,0.3,1.293,0.312c0.259,0.002,0.466,0.004,0.634,0.006
								c0.689,0.006,0.691,0.006,0.691,0.006c0.167,0.001,0.375,0.003,0.633,0.006c1.324,0.012,1.298-0.289,1.298-0.289
								c0.178-0.578,1.36-0.718,1.36-0.718l0.216,0.002c0.31,0.003,0.563-0.183,0.565-0.414l0.016-1.74
								C579.963,242.647,579.714,242.458,579.403,242.455z"/>
							<path style="fill:#E0A38B;" d="M571.457,242.438c0,0,3.21-4.556,8.209,0.075L571.457,242.438z"/>
						</g>
						<g>
							<path style="fill:#1E132B;" d="M561.005,231.976c-0.685,0-1.24,0.555-1.24,1.24v4.34h2.48v-4.34
								C562.245,232.531,561.69,231.976,561.005,231.976z"/>
							<path style="fill:#1E132B;" d="M588.555,231.976c-0.685,0-1.24,0.555-1.24,1.24v4.34h2.48v-4.34
								C589.795,232.531,589.24,231.976,588.555,231.976z"/>
						</g>
						<path style="fill:#EEF1F0;" d="M570.38,250.575c0,0,4.29,3.208,10.363,0C580.743,250.575,575.803,258.596,570.38,250.575z"/>
					</g>
					<path style="fill:#322142;" d="M563.748,263.16l0.267-3.66l-1.97-1.232c-0.881-0.6-1.735-1.236-2.532-1.94
						c-1.112-0.984-2.138-2.064-3.058-3.233c-1.771-2.25-3.149-4.821-4.063-7.605h0c-3.452,0.432-7.917-2.267-10.937-6.957
						c-1.46-2.267-2.351-4.649-2.686-6.845c-0.51-3.336,0.276-6.235,2.399-7.602c0.112-0.072,0.237-0.11,0.353-0.171
						c2-1.064,4.639-0.646,7.203,0.914c0.004,0.046,1.339,17.762,3.268,19.382l-0.319-18.791l2.718-4.386l2.655-10.85l0.765,9.145
						l10.657-1.395l1.265-9.145l0.647,9.61l15.628,0.93v-11.625l3.081,11.625l7.059,3.544l0.639-13.309l2.908,13.678l0.206,2.178
						l-0.319,18.791c1.931-1.622,3.268-19.385,3.268-19.385l0.767-0.767c2.223-0.969,4.399-1.044,6.062,0.026
						c0.331,0.213,0.618,0.474,0.885,0.757c1.302,1.384,1.842,3.547,1.618,6.027c-0.218,2.411-1.147,5.112-2.79,7.663
						c-2.777,4.313-6.778,6.943-10.088,7.003c-1.355,4.109-3.763,7.747-6.91,10.595c-0.525,0.475-1.063,0.935-1.627,1.364
						c-0.612,0.466-1.254,0.894-1.908,1.303c-0.168,0.105-0.345,0.198-0.516,0.3l-1.231,0.697l0.158,2.257
						c0.028,0.354,0.059,0.737,0.095,1.148c0.001,0.017,0.003,0.033,0.004,0.05c0.027,0.313,0.056,0.639,0.088,0.979
						c0.157,0.055,3.612,1.262,8.595,3.057c7.061-1.136,15.955-3.747,21.729-9.735c0,0-4.495-18.225-6.51-44.265
						c-2.015-26.04-14.017-37.932-38.052-36.094c-33.933,2.595-36.347,36.276-36.037,57.575c0.31,21.299-5.58,27.78-5.58,27.78
						s4.115,5.144,16.988,7.086c8.352-3.065,15.051-5.404,15.06-5.407C563.686,263.855,563.719,263.496,563.748,263.16z"/>
				</g>
				<g>
					<path style="fill:#8BEACD;" d="M648.449,346.428l-0.038-0.052c-0.678-3.884-10.471-59.661-13.911-63.252
						c-3.565-3.72-47.055-18.901-47.055-18.901s-0.972,9.433-11.896,9.433s-11.896-9.433-11.896-9.433s-43.49,15.182-47.055,18.901
						c-3.441,3.59-13.233,59.368-13.911,63.252l-0.038,0.052h0.029c-0.019,0.11-0.029,0.168-0.029,0.168h63.516v-0.168h9.385h9.385
						v0.168h63.516c0,0-0.01-0.058-0.029-0.168H648.449z"/>
					<g>
						<rect x="575.084" y="273.657" style="fill:#5EBF9F;" width="0.93" height="72.771"/>
						<polygon style="fill:#5EBF9F;" points="626.442,296.906 624.076,346.596 628.302,346.428 						"/>
						<polygon style="fill:#5EBF9F;" points="523.193,346.428 527.418,346.596 525.053,296.906 						"/>
					</g>
				</g>
				<g>
					<g>
						<path style="fill:#F4F1F2;" d="M549.434,269.819c-5.596,8.335-3.47,19.072-3.377,19.525l0.911-0.187
							c-0.022-0.107-2.142-10.806,3.239-18.82c2.923-4.353,7.525-7.146,13.679-8.3l-0.171-0.914
							C557.306,262.324,552.501,265.25,549.434,269.819z"/>
						<path style="fill:#F4F1F2;" d="M599.172,269.15c-2.744-4.347-6.705-7.023-11.772-7.955l-0.169,0.915
							c4.802,0.882,8.554,3.418,11.154,7.535c9.327,14.773,1.242,45.409,1.16,45.717l0.897,0.241
							C600.785,314.332,608.716,284.269,599.172,269.15z"/>
					</g>
					<path style="fill:#7499B2;" d="M546.636,290.008c0.72-0.142,4.081-0.488,6.603,4.729c1.22,2.522,3.633,8.962,5.56,15.375
						c3.656,12.163,2.295,13.175,1.641,13.661c-1.45,1.078-3.595,1.951-5.064,2.473c-0.017,0.105-0.041,0.21-0.078,0.313
						c-0.319,0.887-1.296,1.348-2.184,1.03c-0.887-0.319-1.348-1.296-1.03-2.184c0.319-0.887,1.296-1.348,2.184-1.03
						c0.123,0.044,0.236,0.103,0.341,0.171c1.341-0.47,3.367-1.273,4.674-2.227c1.155-2.195-4.961-21.08-7.715-26.776
						c-2.052-4.242-4.453-3.749-4.584-3.715c-0.051,0.014-0.101,0.005-0.152,0.01c-0.036,0.004-0.068,0.021-0.106,0.021
						c-0.104-0.004-2.58,0.054-3.583,4.69c-1.336,6.184-2.834,25.978-1.195,27.839c1.562,0.648,3.843,0.949,5.247,1.081
						c0.429-0.623,1.233-0.91,1.978-0.643c0.887,0.319,1.348,1.296,1.03,2.184c-0.319,0.887-1.296,1.348-2.184,1.03
						c-0.377-0.135-0.67-0.393-0.866-0.708c-1.521-0.137-4.142-0.474-5.988-1.259c-0.75-0.319-2.312-0.982-1.621-13.664
						c0.364-6.686,1.193-13.513,1.785-16.251C542.555,290.493,545.905,290.039,546.636,290.008z"/>
					<path style="fill:#413563;" d="M552.884,293.35l-2.122,1.703c0,0-1.581-3.064-3.848-3.015c0,0-2.034,0.406-2.963,2.758
						l-2.28-0.603c0,0,0.957-3.694,3.824-4.297l0.039-1.823c0,0,0.782-1.149,1.967,0.079l0.268,1.42
						C547.77,289.571,550.777,290.035,552.884,293.35z"/>
					<g>
						<path style="fill:#7499B2;" d="M594.213,316.77c0,3.193,2.588,5.781,5.781,5.781s5.782-2.588,5.782-5.781
							c0-3.193-2.589-5.781-5.782-5.781S594.213,313.577,594.213,316.77z"/>
						<path style="fill:#DCE9F4;" d="M595.257,316.77c0,2.616,2.121,4.737,4.737,4.737c2.616,0,4.737-2.121,4.737-4.737
							s-2.121-4.737-4.737-4.737C597.378,312.033,595.257,314.154,595.257,316.77z"/>
					</g>
				</g>
			</g>
		</g>
		<g>
			<g>
				<path style="fill:#A1E2C1;" d="M522.426,248.951H275.049c-5.136,0-9.3,4.164-9.3,9.3v143.218c0,5.136,4.164,9.3,9.3,9.3h247.376
					c5.136,0,9.3-4.164,9.3-9.3V258.251C531.726,253.115,527.562,248.951,522.426,248.951z"/>
				<path style="fill:#55A895;" d="M522.426,248.951H275.049c-5.136,0-9.3,4.164-9.3,9.3v12.09h265.976v-12.09
					C531.726,253.115,527.562,248.951,522.426,248.951z"/>
			</g>
			<g>
				<g>
					<g>
						<path style="fill:#DE9595;" d="M365.338,288.088c-0.116,0.062-0.242,0.1-0.353,0.171c-2.123,1.367-2.909,4.266-2.399,7.602
							c0.336,2.195,1.227,4.578,2.686,6.845c3.02,4.69,7.486,7.389,10.937,6.957h0c0.369-0.046,0.73-0.117,1.073-0.237
							c0.356-0.124,0.702-0.275,1.022-0.481c3.519-2.266,3.391-8.734-0.287-14.446c-0.951-1.477-2.048-2.754-3.21-3.804
							c-0.019-0.017-0.039-0.03-0.058-0.048C371.572,287.804,367.921,286.714,365.338,288.088z"/>
						<path style="fill:#DE9595;" d="M433.209,302.706c1.643-2.552,2.573-5.252,2.79-7.663c0.224-2.48-0.316-4.643-1.618-6.027
							c-0.266-0.283-0.554-0.544-0.885-0.757c-2.492-1.605-6.139-0.647-9.365,2.062c-0.152,0.128-0.308,0.238-0.458,0.373
							c-0.085,0.077-0.166,0.163-0.25,0.242c-1.068,1.004-2.078,2.193-2.96,3.562c-3.678,5.712-3.807,12.18-0.287,14.446
							c0.321,0.207,0.666,0.357,1.022,0.481c0.599,0.209,1.245,0.294,1.917,0.283c0.002,0,0.003,0,0.004,0
							C426.43,309.649,430.431,307.019,433.209,302.706z"/>
					</g>
					<g>
						<path style="fill:#DE9595;" d="M416.325,348.693c-4.34-4.34-5.413-25.019-5.413-25.019l-11.534-1.948v-0.002l-0.006,0.001
							l-0.006-0.001v0.002l-11.534,1.948c0,0-1.073,20.679-5.412,25.019c0,0,3.846,4.027,16.946,4.03v0c0.002,0,0.004,0,0.006,0
							c0.002,0,0.004,0,0.006,0v0C412.478,352.72,416.325,348.693,416.325,348.693z"/>
						<path style="fill:#D37272;" d="M411.275,328.406c-0.262-2.801-0.363-4.733-0.363-4.733l-11.534-1.948v-0.002l-0.006,0.001
							l-0.006-0.001v0.002l-11.534,1.948C387.832,323.673,389.2,330.704,411.275,328.406z"/>
					</g>
					<path style="fill:#ECC1BA;" d="M400.14,326.713c4.614-0.089,8.888-1.464,12.536-3.743c0.655-0.409,1.296-0.838,1.908-1.303
						c0.564-0.429,1.102-0.889,1.627-1.364c5.107-4.623,8.281-11.323,8.137-18.751l-0.6-31.034l-49.369,0.954l0.6,31.034
						c0.108,5.587,2.085,10.686,5.294,14.762c0.92,1.169,1.946,2.249,3.058,3.233c1.073,0.949,2.225,1.809,3.45,2.563
						C390.66,325.456,395.241,326.808,400.14,326.713z"/>
					<g>
						<g>
							<path style="fill:#4C2E29;" d="M406.836,291.564c0,0,6.884-3.829,11.624,0.335c4.74,4.164,1.38-3.196-3.405-4.47
								c-4.785-1.273-6.597,0.489-6.597,0.489s-0.604-0.732-1.321-0.816C405.147,286.869,403.827,292.936,406.836,291.564z"/>
							<path style="fill:#4C2E29;" d="M390.268,291.552c0,0-6.953-3.703-11.616,0.548c-4.663,4.25-1.438-3.171,3.323-4.531
								c4.761-1.36,6.605,0.369,6.605,0.369s0.591-0.743,1.306-0.84C391.871,286.827,393.302,292.87,390.268,291.552z"/>
						</g>
						<g>
							<path style="fill:#DF7660;" d="M379.966,307.666c-1.813,1.301-1.281,5.144,1.188,8.584s5.939,5.175,7.752,3.875
								c1.813-1.301,1.281-5.144-1.188-8.584C385.249,308.1,381.778,306.365,379.966,307.666z"/>
							<path style="fill:#DF7660;" d="M418.889,307.666c1.813,1.301,1.281,5.144-1.188,8.584c-2.468,3.44-5.939,5.175-7.751,3.875
								c-1.813-1.301-1.281-5.144,1.187-8.584C413.606,308.1,417.077,306.365,418.889,307.666z"/>
						</g>
						<g>
							<path style="fill:#EA344F;" d="M403.221,306.627l-0.216-0.002l-3.282-0.029l-0.691-0.006l-3.282-0.029l-0.216-0.002
								c-0.31-0.003-0.563,0.182-0.565,0.414l-0.015,1.74c-0.002,0.231,0.248,0.421,0.558,0.424l0.216,0.002
								c0,0,1.179,0.161,1.347,0.742c0,0-0.031,0.3,1.293,0.312c0.259,0.002,0.466,0.004,0.633,0.005
								c0.69,0.006,0.691,0.006,0.691,0.006c0.167,0.001,0.375,0.003,0.633,0.006c1.324,0.012,1.298-0.289,1.298-0.289
								c0.178-0.578,1.36-0.718,1.36-0.718l0.216,0.002c0.31,0.003,0.563-0.183,0.565-0.414l0.016-1.74
								C403.78,306.82,403.531,306.63,403.221,306.627z"/>
							<path style="fill:#E0A38B;" d="M395.274,306.61c0,0,3.21-4.556,8.209,0.075L395.274,306.61z"/>
						</g>
						<g>
							<path style="fill:#1E132B;" d="M384.822,296.148c-0.685,0-1.24,0.555-1.24,1.24v4.34h2.48v-4.34
								C386.062,296.703,385.507,296.148,384.822,296.148z"/>
							<path style="fill:#1E132B;" d="M412.373,296.148c-0.685,0-1.24,0.555-1.24,1.24v4.34h2.48v-4.34
								C413.613,296.703,413.057,296.148,412.373,296.148z"/>
						</g>
						<path style="fill:#EEF1F0;" d="M394.197,314.748c0,0,4.29,3.208,10.363,0C404.56,314.748,399.62,322.769,394.197,314.748z"/>
					</g>
					<path style="fill:#322142;" d="M447.605,329.86c-3.41-12.322-11.78-23.934-11.78-42.363c0-24.004-11.347-34.547-21.323-39.178
						c2.456-2.236,3.767-4.867,3.411-7.499c-0.805-5.938-9.761-9.626-20.005-8.238c-10.244,1.388-17.895,7.327-17.091,13.265
						c0.112,0.826,0.396,1.602,0.805,2.333c-15.949,7.405-18.419,25.19-19.973,39.317c-2.015,18.318-8.37,30.041-11.78,42.363
						c-1.385,5.005-0.903,9.282,0.157,12.595c13.857-5.826,37.443-14.06,37.443-14.06l0,0c0.262-2.795,0.362-4.723,0.362-4.723
						l0.013-0.002c-0.358-0.197-0.717-0.393-1.065-0.607c-1.224-0.755-2.377-1.614-3.45-2.563c-1.112-0.984-2.138-2.064-3.058-3.233
						c-1.771-2.251-3.149-4.821-4.063-7.605h0c-3.452,0.432-7.917-2.267-10.937-6.957c-1.46-2.267-2.351-4.65-2.686-6.845
						c-0.51-3.336,0.276-6.235,2.399-7.602c0.112-0.072,0.237-0.109,0.353-0.171c2.099-1.116,4.903-0.607,7.584,1.149
						c0,0-0.167,16.285,2.608,17.996c0,0-0.937-10.795,0.205-16.695c7.686-1.229,12.097-12.216,12.097-12.216
						c-1.252,7.982-4.482,10.54-4.482,10.54c9.697-0.888,15.388-15.188,15.388-15.19c0.001,0.001,5.691,14.301,15.388,15.19
						c0,0-3.23-2.558-4.483-10.54c0,0,4.788,11.938,13.083,12.324l0.697,0.289c0.075-0.071,0.149-0.146,0.224-0.216
						c1.089,5.937,0.17,16.514,0.17,16.514c2.774-1.711,2.608-17.996,2.608-17.996s-0.141-0.113-0.37-0.293
						c2.681-1.606,5.435-1.977,7.441-0.685c0.331,0.213,0.618,0.474,0.885,0.757c1.302,1.384,1.842,3.547,1.618,6.027
						c-0.218,2.411-1.147,5.112-2.79,7.663c-2.777,4.313-6.778,6.943-10.088,7.003c-1.355,4.109-3.763,7.747-6.91,10.595
						c-0.525,0.475-1.063,0.935-1.627,1.364c-0.612,0.466-1.254,0.894-1.908,1.303c-0.566,0.354-1.152,0.68-1.747,0.987
						c0.04,0.68,0.161,2.552,0.4,4.995l0.057-0.557c0,0,22.241,7.764,36.216,13.548C448.55,338.706,448.921,334.613,447.605,329.86z
						"/>
				</g>
				<g>
					<g>
						<path style="fill:#55A797;" d="M410.681,334.27c0,0-0.72,7.448-11.302,7.448s-11.302-7.448-11.302-7.448l-23.946,76.499
							h35.249h35.249L410.681,334.27z"/>
						<g>
							<path style="fill:#3B7A6E;" d="M388.076,334.27l-23.946,76.499h28.155v-58.508l-3.953-16.898
								C388.12,334.706,388.076,334.27,388.076,334.27z"/>
							<path style="fill:#3B7A6E;" d="M410.736,334.27c0,0-0.044,0.436-0.256,1.094l-3.953,16.898v58.508h28.155L410.736,334.27z"/>
						</g>
					</g>
					<g>
						<g>
							<path style="fill:#EEF1F0;" d="M340.415,347.297c-3.565,3.72-13.95,63.472-13.95,63.472h63.516v-58.047l-2.511-24.326
								C387.47,328.396,343.98,343.578,340.415,347.297z"/>
							<path style="fill:#EEF1F0;" d="M458.44,347.297c-3.565-3.72-47.055-18.901-47.055-18.901l-2.511,24.326v58.047h63.516
								C472.39,410.769,462.005,351.017,458.44,347.297z"/>
						</g>
						<g>
							<polygon style="fill:#CAB5E5;" points="384.435,348.073 377.46,345.902 387.47,328.396 373.275,345.902 378.89,349.158 
								375.599,352.262 389.981,376.127 379.939,352.722 							"/>
							<polygon style="fill:#CAB5E5;" points="411.385,328.396 421.395,345.902 414.419,348.073 418.915,352.722 408.874,376.127 
								423.255,352.262 419.965,349.158 425.58,345.902 							"/>
							<polygon style="fill:#CAB5E5;" points="345.995,410.769 351.575,410.769 348.785,374.732 							"/>
							<polygon style="fill:#CAB5E5;" points="452.013,374.732 449.223,410.769 454.803,410.769 							"/>
						</g>
					</g>
				</g>
				<g>
					<g>
						<path style="fill:#7499B2;" d="M373.251,333.991c-5.596,8.335-3.47,19.072-3.377,19.525l0.911-0.187
							c-0.022-0.107-2.142-10.806,3.239-18.82c2.923-4.353,7.525-7.146,13.679-8.3l-0.171-0.914
							C381.123,326.497,376.318,329.422,373.251,333.991z"/>
						<path style="fill:#7499B2;" d="M422.989,333.323c-2.744-4.347-6.705-7.023-11.772-7.955l-0.169,0.915
							c4.802,0.882,8.554,3.417,11.154,7.535c9.327,14.773,1.243,45.409,1.16,45.716l0.897,0.242
							C424.602,378.504,432.533,348.441,422.989,333.323z"/>
					</g>
					<path style="fill:#7499B2;" d="M370.453,354.18c0.72-0.143,4.081-0.489,6.603,4.729c1.22,2.522,3.633,8.962,5.56,15.374
						c3.656,12.163,2.295,13.175,1.641,13.661c-1.45,1.079-3.595,1.951-5.064,2.473c-0.017,0.105-0.041,0.21-0.078,0.313
						c-0.319,0.887-1.296,1.348-2.184,1.03c-0.887-0.319-1.348-1.296-1.03-2.184c0.319-0.887,1.296-1.348,2.184-1.03
						c0.123,0.044,0.235,0.103,0.341,0.171c1.341-0.47,3.367-1.273,4.674-2.227c1.155-2.195-4.961-21.08-7.715-26.776
						c-2.052-4.242-4.453-3.75-4.584-3.715c-0.051,0.014-0.101,0.005-0.152,0.01c-0.036,0.004-0.069,0.021-0.106,0.021
						c-0.104-0.004-2.58,0.054-3.583,4.689c-1.336,6.184-2.834,25.978-1.195,27.839c1.562,0.647,3.843,0.949,5.247,1.081
						c0.429-0.623,1.233-0.91,1.978-0.643c0.887,0.319,1.348,1.296,1.03,2.184c-0.319,0.887-1.296,1.348-2.184,1.03
						c-0.376-0.135-0.67-0.393-0.866-0.708c-1.522-0.137-4.142-0.474-5.988-1.259c-0.75-0.318-2.312-0.982-1.621-13.664
						c0.364-6.686,1.193-13.513,1.785-16.251C366.373,354.666,369.722,354.211,370.453,354.18z"/>
					<path style="fill:#413563;" d="M376.702,357.522l-2.122,1.703c0,0-1.581-3.064-3.848-3.015c0,0-2.034,0.406-2.963,2.757
						l-2.28-0.603c0,0,0.957-3.694,3.824-4.297l0.038-1.823c0,0,0.782-1.149,1.967,0.079l0.268,1.42
						C371.587,353.744,374.594,354.207,376.702,357.522z"/>
					<g>
						<path style="fill:#7499B2;" d="M418.03,380.943c0,3.193,2.588,5.781,5.781,5.781c3.193,0,5.782-2.588,5.782-5.781
							c0-3.193-2.589-5.782-5.782-5.782C420.618,375.161,418.03,377.75,418.03,380.943z"/>
						<path style="fill:#DCE9F4;" d="M419.074,380.943c0,2.616,2.121,4.737,4.737,4.737c2.616,0,4.737-2.121,4.737-4.737
							c0-2.616-2.121-4.737-4.737-4.737C421.195,376.205,419.074,378.327,419.074,380.943z"/>
					</g>
				</g>
				<path style="fill:#55A797;" d="M381.622,248.18c0,0,15.094-8.748,32.88,0.138C414.503,248.319,397.914,232.762,381.622,248.18z"
					/>
			</g>
		</g>
	</g>
</g>
</svg>
